{"title":"NCAA.FB.Bowling.Green.@.OSU.2016.HDTV.x264-TheRealTTL","uid":15756139,"size":1491524251,"categoryP":"video","categoryS":"tv_shows","magnet":"?xt=urn:btih:82ae3d89d651439658a902099999e9e82ec75678&amp;dn=NCAA.FB.Bowling.Green.%40.OSU.2016.HDTV.x264-TheRealTTL&amp;tr=udp%3A%2F%2Ftracker.leechers-paradise.org%3A6969&amp;tr=udp%3A%2F%2Fzer0day.ch%3A1337&amp;tr=udp%3A%2F%2Fopen.demonii.com%3A1337&amp;tr=udp%3A%2F%2Ftracker.coppersurfer.tk%3A6969&amp;tr=udp%3A%2F%2Fexodus.desync.com%3A6969","seeders":1,"leechers":0,"uploader":"thetorrentlord","files":6,"time":1473054904,"description":"Split into quarters Like a real game and chapters added for your convenience.\tIncludes the Band pregame and Script Ohio.\t\t\t\t\t\t\t\t\t\t\t\t\t\t\t\t\t                      Grab the sample and if you like it then go for it.\t\t\t\t\t\t\t\t\t\t\t\t\t\t\t\t\t\t\t\t\t                                                                        Enjoy and please share!!!!!\t\t\t\t\t\t\t\t\t\t\t\t\t\t\t\t\t\t\t\t\t\t\t\t\t\t\t\t\t\t\t\t\t\t\t\tNCAA.FB.Bowling.Green.@.OSU.1st.Quarter.2016.HDTV.x264-TheRealTTL.mp4\r\nFormat                           : MPEG-4\r\nFormat profile                   : Base Media / Version 2\r\nCodec ID                         : mp42\r\nFile size                        : 495 MiB\r\nDuration                         : 1h 0mn\r\nOverall bit rate                 : 1 142 Kbps\r\nEncoded date                     : UTC 2036-02-06 06:28:16\r\nTagged date                      : UTC 2036-02-06 06:28:16\r\nWriting application              : HandBrake 0.10.2 2015060900\r\n\r\nVideo\r\nID                               : 1\r\nFormat                           : AVC\r\nFormat/Info                      : Advanced Video Codec\r\nFormat profile                   :   \r\nFormat settings, CABAC           : Yes\r\nFormat settings, ReFrames        : 4 frames\r\nCodec ID                         : avc1\r\nCodec ID/Info                    : Advanced Video Coding\r\nDuration                         : 1h 0mn\r\nBit rate mode                    : Variable\r\nBit rate                         : 1 023 Kbps\r\nWidth                            : 720 pixels\r\nHeight                           : 406 pixels\r\nDisplay aspect ratio             : 16:9\r\nFrame rate mode                  : Constant\r\nFrame rate                       : 29.970 fps\r\nResolution                       : 8 bits\r\nColorimetry                      : 4:2:0\r\nScan type                        : Progressive\r\nBits/(Pixel*Frame)               : 0.117\r\nStream size                      : 444 MiB (90%)\r\nWriting library                  : x264 core 142 r2479 dd79a61\r\n\r\n\r\nAudio\r\nID                               : 2\r\nFormat                           : AAC\r\nFormat/Info                      : Advanced Audio Codec\r\nFormat version                   : Version 4\r\nFormat profile                   : LC\r\nFormat settings, SBR             : No\r\nCodec ID                         : 40\r\nDuration                         : 1h 0mn\r\nBit rate mode                    : Variable\r\nBit rate                         : 112 Kbps\r\nChannel(s)                       : 2 channels\r\nChannel positions                : L R\r\nSampling rate                    : 48.0 KHz\r\nStream size                      : 48.7 MiB (10%)\r\nTitle                            : Stereo\r\nEncoded date                     : UTC 2036-02-06 06:28:16\r\nTagged date                      : UTC 2036-02-06 06:28:16\r\nLanguage                         : English","torrent":{"xt":"urn:btih:82ae3d89d651439658a902099999e9e82ec75678","amp;dn":"NCAA.FB.Bowling.Green.%40.OSU.2016.HDTV.x264-TheRealTTL","amp;tr":["udp%3A%2F%2Ftracker.leechers-paradise.org%3A6969","udp%3A%2F%2Fzer0day.ch%3A1337","udp%3A%2F%2Fopen.demonii.com%3A1337","udp%3A%2F%2Ftracker.coppersurfer.tk%3A6969","udp%3A%2F%2Fexodus.desync.com%3A6969"],"infoHash":"82ae3d89d651439658a902099999e9e82ec75678","infoHashBuffer":{"type":"Buffer","data":[130,174,61,137,214,81,67,150,88,169,2,9,153,153,233,232,46,199,86,120]},"announce":[],"urlList":[]}}